<svg id="e1SmKYXp2Qs1" xmlns="http://www.w3.org/2000/svg" xmlns:xlink="http://www.w3.org/1999/xlink" viewBox="0 0 48 48" shape-rendering="geometricPrecision" text-rendering="geometricPrecision" project-id="c0a524fb9e6743fe896bfb53eb41428e" export-id="da385b12f3d94770a5212f13f6c6295d" cached="false">
<style><![CDATA[
#e1SmKYXp2Qs2 {animation: e1SmKYXp2Qs2_s_do 3000ms linear infinite normal forwards}@keyframes e1SmKYXp2Qs2_s_do { 0% {stroke-dashoffset: 118.41} 33.333333% {stroke-dashoffset: 0} 100% {stroke-dashoffset: 0}}
]]></style>
<path id="e1SmKYXp2Qs2" d="M32.5767,27.9209c0,2.2193-.8366,4.4299-2.5098,6.1229-3.3464,3.3861-8.7799,3.3861-12.1264,0-1.6732-1.693-2.5098-3.9036-2.5098-6.1229h-8.38358v2.8509c.01761.5176.43151.9387.94228.9474h3.3904c.2554.8772.5989,1.7194,1.0304,2.5176l-2.3953,2.4211c-.36991.3685-.36991.9737,0,1.3422l3.998,4.0352c.3699.3684.9599.3684,1.3298,0l2.3953-2.4211c.7926.4298,1.6292.7807,2.4922,1.0438v4.4124c0,.4649.3699.8421.8366.8421h5.865c.4579,0,.8366-.3772.8366-.8421v-4.4124c.863-.2631,1.6996-.6052,2.501-1.0438l2.3953,2.4211c.3699.3684.9599.3684,1.3298,0l3.9981-4.0352c.3698-.3685.3698-.9737,0-1.3422l-2.3954-2.4211c.4315-.7982.775-1.6491,1.0304-2.5176h3.3904c.5196,0,.9423-.4298.9423-.9474v-2.8509h-8.3748-.0088Z" fill="none" stroke="#ee3524" stroke-width="1.5" stroke-linecap="round" stroke-linejoin="round" stroke-dashoffset="118.41" stroke-dasharray="118.41"/><path d="M45.9297,27.9216h-43.85548l.70451-4.9299h42.44647l.7045,4.9299Z" fill="none" stroke="#ee3524" stroke-width="1.5" stroke-linecap="round" stroke-linejoin="round"/><path d="M27.5543,4.2536v-2.18426h-7.1243v2.18426C11.562,5.9203,4.85156,13.6749,4.85156,22.9909h38.28994c0-9.3248-6.7104-17.0706-15.5872-18.7373Z" fill="none" stroke="#ee3524" stroke-width="1.5" stroke-linecap="round" stroke-linejoin="round"/></svg>
