<svg width="45" height="46" viewBox="0 0 45 46" fill="none" xmlns="http://www.w3.org/2000/svg">
<path d="M14.8203 43.7382V2.47607H38.3556V17.8834" stroke="#EE3524" stroke-width="1.5" stroke-linecap="round" stroke-linejoin="round"/>
<path d="M14.8203 7.27075H38.3556" stroke="#EE3524" stroke-width="1.5" stroke-linecap="round" stroke-linejoin="round"/>
<path d="M22.1602 26.2183L32.3929 20.26L42.5266 26.2183V37.7221L32.3434 43.7382L22.1602 37.7221V26.2183Z" stroke="#EE3524" stroke-width="1.5" stroke-linecap="round" stroke-linejoin="round"/>
<path d="M24.5859 27.6458L32.343 31.9948L40.1496 27.6458" stroke="#EE3524" stroke-width="1.5" stroke-linecap="round" stroke-linejoin="round"/>
<path d="M32.3438 31.9949V39.8842" stroke="#EE3524" stroke-width="1.5" stroke-linecap="round" stroke-linejoin="round"/>
<path d="M4.16797 43.738H24.2125" stroke="#EE3524" stroke-width="1.5" stroke-linecap="round" stroke-linejoin="round"/>
<path d="M14.8203 20.26H22.0327" stroke="#EE3524" stroke-width="1.5" stroke-linecap="round" stroke-linejoin="round"/>
<path d="M8.49609 43.4493V31.2605" stroke="#EE3524" stroke-width="1.5" stroke-linecap="round" stroke-linejoin="round"/>
<path d="M6.01074 26.5238C4.95446 25.7564 4.26953 24.5102 4.26953 23.1073C4.26953 20.7801 6.15928 18.8821 8.49465 18.8821C10.1368 18.8821 11.5562 19.8229 12.2577 21.1928" stroke="#EE3524" stroke-width="1.5" stroke-linecap="round" stroke-linejoin="round"/>
<path d="M8.49241 38.011C5.16678 38.011 2.47656 35.3208 2.47656 31.995C2.47656 28.6693 5.16678 25.979 8.49241 25.979" stroke="#EE3524" stroke-width="1.5" stroke-linecap="round" stroke-linejoin="round"/>
</svg>
