<svg id="e4svRhfVt3Y1" xmlns="http://www.w3.org/2000/svg" xmlns:xlink="http://www.w3.org/1999/xlink" viewBox="0 0 53 54" shape-rendering="geometricPrecision" text-rendering="geometricPrecision" project-id="6cad8330602d4aeabc37170b093e35ba" export-id="8a198062a0964f11a40cf650218cf181" cached="false">
<style><![CDATA[
#e4svRhfVt3Y2 {animation: e4svRhfVt3Y2_s_do 3000ms linear infinite normal forwards}@keyframes e4svRhfVt3Y2_s_do { 0% {stroke-dashoffset: 165.69} 33.333333% {stroke-dashoffset: 0} 100% {stroke-dashoffset: 0}} #e4svRhfVt3Y3_tr {animation: e4svRhfVt3Y3_tr__tr 3000ms linear infinite normal forwards}@keyframes e4svRhfVt3Y3_tr__tr { 0% {transform: translate(34.381275px,16.3439px) rotate(361deg)} 33.333333% {transform: translate(34.381275px,16.3439px) rotate(361deg)} 56.666667% {transform: translate(34.381275px,16.3439px) rotate(360deg)} 100% {transform: translate(34.381275px,16.3439px) rotate(360deg)}} #e4svRhfVt3Y4 {animation: e4svRhfVt3Y4_s_do 3000ms linear infinite normal forwards}@keyframes e4svRhfVt3Y4_s_do { 0% {stroke-dashoffset: 50.13} 50% {stroke-dashoffset: 50.13} 66.666667% {stroke-dashoffset: 0} 100% {stroke-dashoffset: 0}} #e4svRhfVt3Y5 {animation: e4svRhfVt3Y5_s_do 3000ms linear infinite normal forwards}@keyframes e4svRhfVt3Y5_s_do { 0% {stroke-dashoffset: 9.21} 66.666667% {stroke-dashoffset: 9.21} 86.666667% {stroke-dashoffset: 0} 100% {stroke-dashoffset: 0}}
]]></style>
<path id="e4svRhfVt3Y2" d="M8.7591,46.8359l.00262.6671-.00786.4537c-.02095,1.2375-1.04746,2.2459-2.28871,2.2477h-3.17644C2.02826,50.2026,1.00175,49.1785,1,47.9201v-15.6404c.00175-1.2575,1.02826-2.2816,2.28958-2.2834h3.18605c1.13388.0018,2.08445.8143,2.26077,1.9316l.09864.6261-.07594.7054m0,13.5765v-13.5765m0,13.5765l.58483-.0583c.19379-.0192.39455-.0288.59706-.0288c2.74171,0,5.82911,1.7609,8.81441,3.4634c2.4546,1.3986,4.9929,2.8451,6.8181,2.8451.3099,0,.5988-.0418.8581-.1237l.027-.0078L50.2082,46.579v-.0339c1.3626-.5774,2.1307-2.0875,1.7388-3.5531-.3544-1.3185-1.5546-2.2041-2.9862-2.2041-.2418,0-.4879.0261-.7297.0766l-19.757,3.6359M8.7591,33.2594l.35265-.1263c2.76875-.991,4.88725-1.4726,6.47505-1.4726c2.0653,0,3.0045.8064,3.8355,1.5197l.0131.0113c.3727.3405.7795.647,1.2098.91l9.195,5.2965c.6285.3632,1.0763.9492,1.2631,1.6494s.089,1.4308-.2759,2.0578c-.4844.8334-1.3861,1.3516-2.3533,1.3516-.4774,0-.9479-.1263-1.3617-.3658l-7.6735-4.4195" fill="none" stroke="#ee3524" stroke-width="1.5" stroke-miterlimit="10" stroke-dashoffset="165.69" stroke-dasharray="165.69"/><g id="e4svRhfVt3Y3_tr" transform="translate(34.381275,16.3439) rotate(361)"><path d="M32.2227,31.5363c.7132.1001,1.4394.1506,2.1595.1506l-.0008.0009c.7201,0,1.4472-.0505,2.1639-.1515.5036-.0662.8807-.499.8772-1.0102v-1.8375l.3893-.108c.9829-.2734,1.9317-.6662,2.8203-1.1669l.3518-.1986l1.3067,1.3037c.1912.1942.4469.3004.7193.3004.2234,0,.4347-.0714.6154-.209c1.1548-.8691,2.1813-1.8941,3.0524-3.0497.3073-.4023.2671-.9736-.096-1.3315l-1.3049-1.3019.199-.351c.5028-.8856.8964-1.8322,1.1696-2.8128l.1083-.3884h1.8557c.5046,0,.934-.3762,1.0012-.8787.2026-1.4299.2026-2.879,0-4.3124-.0663-.4982-.4966-.8735-1.0108-.8735h-1.8461l-.1083-.3884c-.274-.9806-.6677-1.9272-1.1705-2.8137l-.199-.35095l1.3067-1.30192c.3588-.35444.3989-.92397.0943-1.3263-.8703-1.153-1.8968-2.17799-3.056-3.04797-.1781-.13585-.3893-.20726-.6128-.20726-.2723,0-.5281.10711-.7219.30305l-1.304,1.30279-.3527-.19942c-.8877-.50248-1.8357-.89698-2.8185-1.17216l-.3885-.10886v-1.84271c.0035-.50684-.3727-.93878-.8781-1.0067C35.8312,1.05051,35.1041,1,34.384,1s-1.4464.05051-2.1622.14979c-.5027.06705-.8798.49986-.8763,1.00931v1.8401l-.3893.10799c-.9838.27344-1.9335.66619-2.823,1.1678l-.3517.19856-1.3067-1.30366c-.1921-.19333-.4478-.29957-.7202-.29957-.2234,0-.4355.0714-.6154.20813-1.1565.8691-2.1831,1.89496-3.0551,3.05232-.3072.40233-.2671.97361.0969,1.33153l1.3041,1.30104-.199.35096c-.5028.8856-.8965,1.8323-1.1697,2.8137l-.1082.3884h-1.8549c-.5045,0-.9349.3753-1.0021.8769-.2016,1.4291-.2016,2.8791,0,4.3099.0681.4955.4984.8691.9995.8691h1.8566l.1083.3884c.274.9806.6668,1.9272,1.1696,2.8137l.199.3509-1.3058,1.3046c-.3614.3553-.4015.9266-.0925,1.3315.8702,1.1521,1.8976,2.1771,3.056,3.0471.178.1358.3893.2073.6127.2073.2724,0,.5281-.1063.7219-.3031l1.305-1.3002.3517.1986c.8886.5016,1.8375.8943,2.8203,1.1687l.3885.1079v1.8428c-.0026.5059.3744.9379.8807,1.0058Z" transform="translate(-34.381275,-16.3439)" fill="none" stroke="#ee3524" stroke-width="1.5" stroke-miterlimit="10"/></g><path id="e4svRhfVt3Y4" d="M26,15.9691c.0044,4.39,3.5884,7.9648,7.9887,7.97l.0008.0009c4.4046-.0009,7.9878-3.5748,7.9878-7.97s-3.5832-7.97-7.9886-7.97-7.9887,3.5748-7.9887,7.9691Z" fill="none" stroke="#ee3524" stroke-width="1.5" stroke-miterlimit="10" stroke-dashoffset="50.13" stroke-dasharray="50.13"/><path id="e4svRhfVt3Y5" d="M31,16.4149l2.0076,2.002c.0603.0601.1397.0932.2252.0932h.0175c.0855-.0052.1667-.0444.2235-.1088L37.3197,14" fill="none" stroke="#ee3524" stroke-width="1.5" stroke-miterlimit="10" stroke-dashoffset="9.21" stroke-dasharray="9.21"/></svg>
