<svg width="54" height="49" viewBox="0 0 54 49" fill="none" xmlns="http://www.w3.org/2000/svg">
<path d="M8.7591 41.8358L8.76172 42.5029L8.75386 42.9566C8.73291 44.1941 7.7064 45.2025 6.46515 45.2042H3.28871C2.02826 45.2025 1.00175 44.1784 1 42.92V27.2796C1.00175 26.0221 2.02826 24.998 3.28958 24.9962H6.47562C7.60951 24.998 8.56008 25.8105 8.7364 26.9278L8.83504 27.5539L8.7591 28.2593M8.7591 41.8358V28.2593M8.7591 41.8358L9.34393 41.7775C9.53772 41.7583 9.73848 41.7487 9.94099 41.7487C12.6827 41.7487 15.7701 43.5096 18.7554 45.2121C21.21 46.6107 23.7483 48.0571 25.5735 48.0571C25.8834 48.0571 26.1723 48.0153 26.4316 47.9335L26.4586 47.9256L50.2082 41.5789V41.5449C51.5708 40.9676 52.3389 39.4575 51.947 37.9919C51.5926 36.6734 50.3924 35.7878 48.9608 35.7878C48.719 35.7878 48.4729 35.8139 48.2311 35.8644L28.4741 39.5003M8.7591 28.2593L9.11175 28.133C11.8805 27.142 13.999 26.6604 15.5868 26.6604C17.6521 26.6604 18.5913 27.4668 19.4223 28.18L19.4354 28.1914C19.8081 28.5319 20.2149 28.8384 20.6452 29.1014L29.8402 34.3979C30.4687 34.761 30.9165 35.3471 31.1033 36.0473C31.2901 36.7474 31.1923 37.4781 30.8274 38.1051C30.343 38.9385 29.4413 39.4566 28.4741 39.4566C27.9967 39.4566 27.5262 39.3304 27.1124 39.0909L19.4389 34.6713M34.1497 16.7737L36.1573 18.7757C36.2175 18.8358 36.297 18.8689 36.3825 18.8689H36.4C36.4855 18.8637 36.5667 18.8245 36.6234 18.7601L40.4694 14.3588M37.3121 31.6869C36.592 31.6869 35.8658 31.6364 35.1526 31.5363C34.6463 31.4684 34.2692 31.0364 34.2719 30.5305V28.6877L33.8834 28.5798C32.9006 28.3054 31.9517 27.9127 31.0631 27.4111L30.7114 27.2125L29.4064 28.5127C29.2126 28.7095 28.9569 28.8158 28.6845 28.8158C28.4611 28.8158 28.2498 28.7443 28.0717 28.6085C26.9134 27.7385 25.886 26.7135 25.0158 25.5614C24.7068 25.1565 24.7469 24.5852 25.1083 24.2299L26.4141 22.9253L26.2151 22.5744C25.7123 21.6879 25.3195 20.7413 25.0454 19.7607L24.9372 19.3723H23.0806C22.5795 19.3723 22.1492 18.9987 22.0811 18.5032C21.8795 17.0724 21.8795 15.6224 22.0811 14.1933C22.1483 13.6917 22.5787 13.3164 23.0832 13.3164H24.9381L25.0463 12.928C25.3195 11.9466 25.7132 10.9999 26.216 10.1143L26.415 9.76334L25.1109 8.4623C24.7469 8.10438 24.7068 7.5331 25.014 7.13077C25.886 5.97341 26.9125 4.94755 28.0691 4.07845C28.2489 3.94172 28.4611 3.87032 28.6845 3.87032C28.9569 3.87032 29.2126 3.97656 29.4046 4.16989L30.7114 5.47355L31.0631 5.27499C31.9526 4.77338 32.9023 4.38063 33.886 4.10719L34.2754 3.9992V2.1591C34.2719 1.64965 34.649 1.21684 35.1517 1.14979C35.8675 1.05051 36.5937 1 37.3139 1C38.034 1 38.7611 1.05051 39.4743 1.14979C39.9797 1.21771 40.3559 1.64965 40.3524 2.15649V3.9992L40.7408 4.10806C41.7237 4.38324 42.6717 4.77774 43.5594 5.28022L43.912 5.47964L45.2161 4.17685C45.4099 3.98091 45.6657 3.8738 45.938 3.8738C46.1615 3.8738 46.3727 3.94521 46.5508 4.08106C47.71 4.95104 48.7365 5.97603 49.6068 7.12903C49.9114 7.53136 49.8712 8.10089 49.5125 8.45533L48.2058 9.75725L48.4048 10.1082C48.9076 10.9947 49.3012 11.9413 49.5753 12.9219L49.6836 13.3103H51.5297C52.0439 13.3103 52.4742 13.6856 52.5405 14.1838C52.743 15.6172 52.743 17.0663 52.5405 18.4962C52.4733 18.9987 52.0439 19.3749 51.5393 19.3749H49.6836L49.5753 19.7633C49.3021 20.7439 48.9084 21.6905 48.4057 22.5761L48.2066 22.9271L49.5116 24.229C49.8747 24.5869 49.9149 25.1582 49.6076 25.5605C48.7365 26.7161 47.71 27.7411 46.5551 28.6102C46.3745 28.7478 46.1632 28.8192 45.9398 28.8192C45.6674 28.8192 45.4117 28.713 45.2205 28.5188L43.9138 27.2151L43.562 27.4137C42.6734 27.9144 41.7246 28.3072 40.7417 28.5806L40.3524 28.6886V30.5261C40.3559 31.0373 39.9788 31.4701 39.4751 31.5363C38.7585 31.6373 38.0314 31.6878 37.3113 31.6878L37.3121 31.6869ZM37.3121 24.3152C32.9119 24.31 29.3278 20.7352 29.3235 16.3452C29.3235 11.9509 32.9067 8.37608 37.3121 8.37608C41.7176 8.37608 45.3008 11.9509 45.3008 16.3461C45.3008 20.7413 41.7176 24.3152 37.313 24.3161L37.3121 24.3152Z" stroke="#EE3524" stroke-width="1.5" stroke-miterlimit="10"/>
</svg>
