<svg width="42" height="42" viewBox="0 0 42 42" fill="none" xmlns="http://www.w3.org/2000/svg">
<path d="M20.6621 7.87134H4.7147C3.51452 7.87134 2.54688 8.83654 2.54688 10.0337V37.8001C2.54688 38.9973 3.51452 39.9625 4.7147 39.9625H30.9012C32.1013 39.9625 33.069 38.9973 33.069 37.8001V23.8832" stroke="#EE3524" stroke-width="1.5" stroke-linecap="round" stroke-linejoin="round"/>
<path d="M22.7715 23.5765L18.3008 24.1527L18.8784 19.6933C18.9234 19.3192 19.0959 18.975 19.3509 18.7131L35.2984 2.80595C35.6584 2.44681 36.2585 2.46925 36.6411 2.85085L39.649 5.85121C40.0316 6.2328 40.0541 6.83138 39.694 7.19052L23.7466 23.0977C23.4841 23.3596 23.139 23.5242 22.764 23.5691L22.7715 23.5765Z" stroke="#EE3524" stroke-width="1.5" stroke-linecap="round" stroke-linejoin="round"/>
</svg>
