<svg id="e6srV82hEwg1" xmlns="http://www.w3.org/2000/svg" xmlns:xlink="http://www.w3.org/1999/xlink" viewBox="0 0 60 60" shape-rendering="geometricPrecision" text-rendering="geometricPrecision" project-id="fcc3f9f385b2434fac4279b3d9e2380c" export-id="440a00d796f7474892694c3022903355" cached="false">
<style><![CDATA[
#e6srV82hEwg12 {animation: e6srV82hEwg12_s_do 3000ms linear infinite normal forwards}@keyframes e6srV82hEwg12_s_do { 0% {stroke-dashoffset: 28.71} 33.333333% {stroke-dashoffset: 0} 100% {stroke-dashoffset: 0}} #e6srV82hEwg13 {animation: e6srV82hEwg13_s_do 3000ms linear infinite normal forwards}@keyframes e6srV82hEwg13_s_do { 0% {stroke-dashoffset: 23.2} 33.333333% {stroke-dashoffset: 0} 100% {stroke-dashoffset: 0}} #e6srV82hEwg14 {animation: e6srV82hEwg14_s_do 3000ms linear infinite normal forwards}@keyframes e6srV82hEwg14_s_do { 0% {stroke-dashoffset: 23.2} 33.333333% {stroke-dashoffset: 0} 100% {stroke-dashoffset: 0}} #e6srV82hEwg15 {animation: e6srV82hEwg15_s_do 3000ms linear infinite normal forwards}@keyframes e6srV82hEwg15_s_do { 0% {stroke-dashoffset: 22.37} 33.333333% {stroke-dashoffset: 22.37} 66.666667% {stroke-dashoffset: 0} 100% {stroke-dashoffset: 0}} #e6srV82hEwg16 {animation: e6srV82hEwg16_s_do 3000ms linear infinite normal forwards}@keyframes e6srV82hEwg16_s_do { 0% {stroke-dashoffset: 14.28} 33.333333% {stroke-dashoffset: 14.28} 66.666667% {stroke-dashoffset: 0} 100% {stroke-dashoffset: 0}}
]]></style>
<g clip-path="url(#e6srV82hEwg17)"><g><path d="M24.0508,35.8323h31.9586v19.9401" fill="none" stroke="#ee3524" stroke-width="1.5" stroke-linecap="round" stroke-linejoin="round"/><path d="M27.0609,26.2036h-26.166369v3.5449h26.166369v-3.5449Z" fill="none" stroke="#ee3524" stroke-width="1.5" stroke-linecap="round" stroke-linejoin="round"/><path d="M59.1031,55.7725h-58.208569v3.3293h58.208569v-3.3293Z" fill="none" stroke="#ee3524" stroke-width="1.5" stroke-linecap="round" stroke-linejoin="round"/><path d="M3.79688,29.437v26.2395" fill="none" stroke="#ee3524" stroke-width="1.5" stroke-linecap="round" stroke-linejoin="round"/><path d="M24.0508,29.7485v25.8204" fill="none" stroke="#ee3524" stroke-width="1.5" stroke-linecap="round" stroke-linejoin="round"/><path d="M10.7617,55.7724v-9.976h6.3893v9.976" fill="none" stroke="#ee3524" stroke-width="1.5" stroke-linecap="round" stroke-linejoin="round"/><path d="M36.6267,42.8384h-5.9236v5.9401h5.9236v-5.9401Z" fill="none" stroke="#ee3524" stroke-width="1.5" stroke-linecap="round" stroke-linejoin="round"/><path d="M48.6189,42.8384h-5.9236v5.9401h5.9236v-5.9401Z" fill="none" stroke="#ee3524" stroke-width="1.5" stroke-linecap="round" stroke-linejoin="round"/><path id="e6srV82hEwg12" d="M48.835,9.55688h-10.8678c-.1847,0-.3344.15014-.3344.33533v2.43119c0,.1851.1497.3353.3344.3353h10.8678c.1847,0,.3344-.1502.3344-.3353v-2.43119c0-.18519-.1497-.33533-.3344-.33533Z" fill="none" stroke="#ee3524" stroke-width="1.5" stroke-linecap="round" stroke-linejoin="round" stroke-dashoffset="28.71" stroke-dasharray="28.71"/><path id="e6srV82hEwg13" d="M38.8734,12.6587L37.906,35.8323" fill="none" stroke="#ee3524" stroke-width="1.5" stroke-linecap="round" stroke-linejoin="round" stroke-dashoffset="23.2" stroke-dasharray="23.2"/><path id="e6srV82hEwg14" d="M47.9961,12.6587l.9793,23.1736" fill="none" stroke="#ee3524" stroke-width="1.5" stroke-linecap="round" stroke-linejoin="round" stroke-dashoffset="23.2" stroke-dasharray="23.2"/><path id="e6srV82hEwg15" d="M40.0312,7.48502v-2.99401c0-1.98803,1.6004-3.592817,3.5829-3.592817h13.734" fill="none" stroke="#ee3524" stroke-width="1.5" stroke-linecap="round" stroke-linejoin="round" stroke-dashoffset="22.37" stroke-dasharray="22.37"/><path id="e6srV82hEwg16" d="M45.0234,7.48512v-1.25749c0-.65868.5375-1.1976,1.1943-1.1976h11.1425" fill="none" stroke="#ee3524" stroke-width="1.5" stroke-linecap="round" stroke-linejoin="round" stroke-dashoffset="14.28" stroke-dasharray="14.28"/></g><clipPath id="e6srV82hEwg17"><rect width="60" height="60" rx="0" ry="0" fill="#fff"/></clipPath></g></svg>
