<svg width="60" height="60" viewBox="0 0 60 60" fill="none" xmlns="http://www.w3.org/2000/svg">
<g clip-path="url(#clip0_614_1011)">
<path d="M24.0508 35.8323H56.0094V55.7724" stroke="#EE3524" stroke-width="1.5" stroke-linecap="round" stroke-linejoin="round"/>
<path d="M27.0609 26.2036H0.894531V29.7485H27.0609V26.2036Z" stroke="#EE3524" stroke-width="1.5" stroke-linecap="round" stroke-linejoin="round"/>
<path d="M59.1031 55.7725H0.894531V59.1018H59.1031V55.7725Z" stroke="#EE3524" stroke-width="1.5" stroke-linecap="round" stroke-linejoin="round"/>
<path d="M3.79688 29.437V55.6765" stroke="#EE3524" stroke-width="1.5" stroke-linecap="round" stroke-linejoin="round"/>
<path d="M24.0508 29.7485V55.5689" stroke="#EE3524" stroke-width="1.5" stroke-linecap="round" stroke-linejoin="round"/>
<path d="M10.7617 55.7724V45.7964H17.151V55.7724" stroke="#EE3524" stroke-width="1.5" stroke-linecap="round" stroke-linejoin="round"/>
<path d="M36.6267 42.8384H30.7031V48.7785H36.6267V42.8384Z" stroke="#EE3524" stroke-width="1.5" stroke-linecap="round" stroke-linejoin="round"/>
<path d="M48.6189 42.8384H42.6953V48.7785H48.6189V42.8384Z" stroke="#EE3524" stroke-width="1.5" stroke-linecap="round" stroke-linejoin="round"/>
<path d="M48.835 9.55688H37.9672C37.7825 9.55688 37.6328 9.70702 37.6328 9.89221V12.3234C37.6328 12.5085 37.7825 12.6587 37.9672 12.6587H48.835C49.0197 12.6587 49.1694 12.5085 49.1694 12.3234V9.89221C49.1694 9.70702 49.0197 9.55688 48.835 9.55688Z" stroke="#EE3524" stroke-width="1.5" stroke-linecap="round" stroke-linejoin="round"/>
<path d="M38.8734 12.6587L37.906 35.8323" stroke="#EE3524" stroke-width="1.5" stroke-linecap="round" stroke-linejoin="round"/>
<path d="M47.9961 12.6587L48.9754 35.8323" stroke="#EE3524" stroke-width="1.5" stroke-linecap="round" stroke-linejoin="round"/>
<path d="M40.0312 7.48502V4.49101C40.0312 2.50298 41.6316 0.898193 43.6141 0.898193H57.3481" stroke="#EE3524" stroke-width="1.5" stroke-linecap="round" stroke-linejoin="round"/>
<path d="M45.0234 7.48512V6.22763C45.0234 5.56895 45.5609 5.03003 46.2177 5.03003H57.3602" stroke="#EE3524" stroke-width="1.5" stroke-linecap="round" stroke-linejoin="round"/>
</g>
<defs>
<clipPath id="clip0_614_1011">
<rect width="60" height="60" fill="white"/>
</clipPath>
</defs>
</svg>
