<svg width="57" height="60" viewBox="0 0 57 60" fill="none" xmlns="http://www.w3.org/2000/svg">
<g clip-path="url(#clip0_614_1002)">
<path d="M51.5092 59.1262H3.5692C1.65021 59.1262 0.347617 57.1923 1.06869 55.4097L15.9322 18.4427C16.3393 17.4175 17.3395 16.7534 18.4327 16.7534H36.4945C37.5878 16.7534 38.588 17.4175 38.995 18.4427L53.9981 55.4214C54.7192 57.2039 53.4166 59.1495 51.4976 59.1495L51.5092 59.1262Z" stroke="#EE3524" stroke-width="1.5" stroke-linecap="round" stroke-linejoin="round"/>
<path d="M21.7388 16.9397L10.5039 58.73" stroke="#EE3524" stroke-width="1.5" stroke-linecap="round" stroke-linejoin="round"/>
<path d="M43.8911 58.73L32.6562 16.9397" stroke="#EE3524" stroke-width="1.5" stroke-linecap="round" stroke-linejoin="round"/>
<path d="M27.3438 16.9397V58.5203" stroke="#EE3524" stroke-width="1.5" stroke-linecap="round" stroke-linejoin="round" stroke-dasharray="4 4"/>
<path d="M49.2091 14.7379C53.0309 14.7379 56.1291 11.6343 56.1291 7.80582C56.1291 3.97736 53.0309 0.873779 49.2091 0.873779C45.3873 0.873779 42.2891 3.97736 42.2891 7.80582C42.2891 11.6343 45.3873 14.7379 49.2091 14.7379Z" stroke="#EE3524" stroke-width="1.5" stroke-linecap="round" stroke-linejoin="round"/>
<path d="M49.207 14.7378V43.4562" stroke="#EE3524" stroke-width="1.5" stroke-linecap="round" stroke-linejoin="round"/>
<path d="M11.4102 6.96704V29.802" stroke="#EE3524" stroke-width="1.5" stroke-linecap="round" stroke-linejoin="round"/>
<path d="M16.6207 2.28345H6.29297V6.90869H16.6207V2.28345Z" stroke="#EE3524" stroke-width="1.5" stroke-linecap="round" stroke-linejoin="round"/>
</g>
<defs>
<clipPath id="clip0_614_1002">
<rect width="57" height="60" fill="white"/>
</clipPath>
</defs>
</svg>
