<svg width="46" height="46" viewBox="0 0 46 46" fill="none" xmlns="http://www.w3.org/2000/svg">
<path d="M42.0547 23.5281H43.7382" stroke="#EE3524" stroke-width="1.5" stroke-linecap="round" stroke-linejoin="round"/>
<path d="M6.91406 23.5281V35.3208" stroke="#EE3524" stroke-width="1.5" stroke-linecap="round" stroke-linejoin="round"/>
<path d="M2.47656 21.803C2.47656 28.9661 11.3562 28.9661 11.3562 21.803C11.3562 18.6506 9.36734 10.8933 6.91637 10.8933C4.4654 10.8933 2.47656 18.6506 2.47656 21.803Z" stroke="#EE3524" stroke-width="1.5" stroke-linecap="round" stroke-linejoin="round"/>
<path d="M34.9023 11.7354V19.3193" stroke="#EE3524" stroke-width="1.5" stroke-linecap="round" stroke-linejoin="round"/>
<path d="M31.1055 10.0023C31.1055 14.9372 38.6812 14.9372 38.6812 10.0023C38.6812 7.82365 36.9812 2.47607 34.8933 2.47607C32.8055 2.47607 31.1055 7.82365 31.1055 10.0023Z" stroke="#EE3524" stroke-width="1.5" stroke-linecap="round" stroke-linejoin="round"/>
<path d="M2.47656 39.5293H4.16006" stroke="#EE3524" stroke-width="1.5" stroke-linecap="round" stroke-linejoin="round"/>
<path d="M8.37109 39.5293H10.0546" stroke="#EE3524" stroke-width="1.5" stroke-linecap="round" stroke-linejoin="round"/>
<path d="M20.1641 6.68472V5.00122" stroke="#EE3524" stroke-width="1.5" stroke-linecap="round" stroke-linejoin="round"/>
<path d="M20.1641 12.5768V10.8933" stroke="#EE3524" stroke-width="1.5" stroke-linecap="round" stroke-linejoin="round"/>
<path d="M36.1641 23.5281H37.8476" stroke="#EE3524" stroke-width="1.5" stroke-linecap="round" stroke-linejoin="round"/>
<path d="M30.2617 23.5281H31.9452" stroke="#EE3524" stroke-width="1.5" stroke-linecap="round" stroke-linejoin="round"/>
<path d="M24.3711 23.5281H26.0546" stroke="#EE3524" stroke-width="1.5" stroke-linecap="round" stroke-linejoin="round"/>
<path d="M20.1641 18.4774V16.7939" stroke="#EE3524" stroke-width="1.5" stroke-linecap="round" stroke-linejoin="round"/>
<path d="M20.1641 24.3695V22.686" stroke="#EE3524" stroke-width="1.5" stroke-linecap="round" stroke-linejoin="round"/>
<path d="M20.1641 30.2621V28.5786" stroke="#EE3524" stroke-width="1.5" stroke-linecap="round" stroke-linejoin="round"/>
<path d="M14.2734 39.5295H17.6404C19.0351 39.5295 20.1657 38.3989 20.1657 37.0042V34.479" stroke="#EE3524" stroke-width="1.5" stroke-linecap="round" stroke-linejoin="round"/>
<path d="M43.7387 27.7366H26.8955C25.5008 27.7366 24.3703 28.8672 24.3703 30.2618V38.6793C24.3703 41.4686 22.1091 43.7298 19.3198 43.7298H2.47656" stroke="#EE3524" stroke-width="1.5" stroke-linecap="round" stroke-linejoin="round"/>
<path d="M24.3711 2.47607V16.794C24.3711 18.1887 25.5017 19.3193 26.8963 19.3193H43.7395" stroke="#EE3524" stroke-width="1.5" stroke-linecap="round" stroke-linejoin="round"/>
<path d="M2.47656 35.3207H13.4275C14.8222 35.3207 15.9528 34.1902 15.9528 32.7955V2.47607" stroke="#EE3524" stroke-width="1.5" stroke-linecap="round" stroke-linejoin="round"/>
</svg>
