<svg width="13" height="11" viewBox="0 0 13 11" fill="none" xmlns="http://www.w3.org/2000/svg">
<g clip-path="url(#clip0_614_937)">
<path d="M12.4987 6.8075V11H9.99679V7.08917C9.99679 6.10767 9.63555 5.436 8.73022 5.436C8.03896 5.436 7.62867 5.88667 7.44805 6.32433C7.38115 6.48033 7.36554 6.697 7.36554 6.91583V10.9978H4.86363C4.86363 10.9978 4.89708 4.37433 4.86363 3.6875H7.36554V4.72317C7.36554 4.72317 7.35439 4.73833 7.34993 4.747H7.36554V4.72317C7.69779 4.227 8.29094 3.51633 9.61994 3.51633C11.2656 3.51633 12.4987 4.56067 12.4987 6.80533V6.8075ZM2.248 0.166668C1.39173 0.166668 0.832031 0.712668 0.832031 1.42983C0.832031 2.147 1.37612 2.693 2.21455 2.693H2.23016C3.10204 2.693 3.64389 2.13183 3.64389 1.42983C3.62829 0.712668 3.10204 0.166668 2.24577 0.166668H2.248ZM0.981432 11H3.48111V3.68967H0.981432V11Z" fill="#515151"/>
</g>
<defs>
<clipPath id="clip0_614_937">
<rect width="11.6667" height="10.8333" fill="white" transform="translate(0.832031 0.166668)"/>
</clipPath>
</defs>
</svg>
