<svg id="e6Trs37xnpY1" xmlns="http://www.w3.org/2000/svg" xmlns:xlink="http://www.w3.org/1999/xlink" viewBox="0 0 44 44" shape-rendering="geometricPrecision" text-rendering="geometricPrecision" project-id="0fa08ac7e8124f8b8fd1c5e8824e4df2" export-id="890210aa9cdb4c5c8c7a8290d2a0a4e0" cached="false">
<style><![CDATA[
#e6Trs37xnpY4 {animation: e6Trs37xnpY4_s_do 3000ms linear infinite normal forwards}@keyframes e6Trs37xnpY4_s_do { 0% {stroke-dashoffset: 172.55} 33.333333% {stroke-dashoffset: 172.55} 66.666667% {stroke-dashoffset: 0} 100% {stroke-dashoffset: 0}} #e6Trs37xnpY5 {animation: e6Trs37xnpY5_s_do 3000ms linear infinite normal forwards}@keyframes e6Trs37xnpY5_s_do { 0% {stroke-dashoffset: 64.13} 16.666667% {stroke-dashoffset: 64.13} 50% {stroke-dashoffset: 0} 100% {stroke-dashoffset: 0}} #e6Trs37xnpY6 {animation: e6Trs37xnpY6_s_do 3000ms linear infinite normal forwards}@keyframes e6Trs37xnpY6_s_do { 0% {stroke-dashoffset: 64.13} 30% {stroke-dashoffset: 0} 100% {stroke-dashoffset: 0}}
]]></style>
<g clip-path="url(#e6Trs37xnpY7)"><g><path id="e6Trs37xnpY4" d="M34.4237,26.027c-.8462,0-1.6678.1321-2.4401.3632L17.9429,12.295c.2383-.7757.3697-1.6092.3697-2.45922c0-4.62136-3.7217-8.35971-8.31428-8.35971s-8.32254,3.73835-8.32254,8.35146s3.72173,8.35147,8.31433,8.35147c.82979,0,1.63489-.1238,2.39899-.3549L26.4544,31.9523c-.23.7675-.3532,1.5762-.3532,2.418c0,4.6131,3.7217,8.3514,8.3143,8.3514s8.3143-3.7383,8.3143-8.3514-3.7217-8.3515-8.3143-8.3515l.0082.0082ZM6.47377,9.82753c0-1.95582,1.57742-3.53204,3.51634-3.53204s3.51629,1.58447,3.51629,3.53204-1.5774,3.53207-3.51629,3.53207-3.51634-1.5845-3.51634-3.53207ZM34.4237,37.9188c-1.9471,0-3.5163-1.5845-3.5163-3.532c0-1.9476,1.5774-3.5321,3.5163-3.5321s3.5163,1.5845,3.5163,3.5321c0,1.9475-1.5774,3.532-3.5163,3.532Z" fill="none" stroke="#ee3524" stroke-width="1.5" stroke-miterlimit="10" stroke-dashoffset="172.55" stroke-dasharray="172.55"/><path id="e6Trs37xnpY5" d="M29.5091,20.1513l2.8591-2.8719c.7476.2311,1.5445.3549,2.3661.3549c4.4201,0,8.0104-3.6063,8.0104-8.04614c0-1.27913-.304-2.49224-.8298-3.5733L38.0945,9.85223c-1.0516,1.05627-2.7522,1.05627-3.7956,0-1.0516-1.05631-1.0516-2.76456,0-3.81262l3.7546-3.77136c-1.0106-.46213-2.1361-.71796-3.311-.71796-4.42,0-8.0103,3.60631-8.0103,8.04612c0,.60239.0657,1.18839.1889,1.74949L23.832,14.4488" fill="none" stroke="#ee3524" stroke-width="1.5" stroke-miterlimit="10" stroke-dashoffset="64.13" stroke-dasharray="64.13"/><path id="e6Trs37xnpY6" d="M14.7082,23.9971l-2.8591,2.8718c-.7476-.2311-1.5445-.3548-2.3661-.3548-4.42007,0-8.01034,3.6063-8.01034,8.0461c0,1.2791.30398,2.4922.82979,3.5733l3.82031-3.8374c1.05162-1.0563,2.75227-1.0563,3.79567,0c1.05157,1.0563,1.05157,2.7646,0,3.8126L6.16384,41.8801c1.01054.4621,2.13609.7179,3.31094.7179c4.42002,0,8.01032-3.6063,8.01032-8.0461c0-.6024-.0657-1.1883-.1889-1.7495l3.0891-3.1029" fill="none" stroke="#ee3524" stroke-width="1.5" stroke-miterlimit="10" stroke-dashoffset="64.13" stroke-dasharray="64.13"/></g><clipPath id="e6Trs37xnpY7"><rect width="42.5" height="42.5" rx="0" ry="0" transform="translate(.855469 0.857178)" fill="#fff"/></clipPath></g></svg>
