<svg id="eliek9WSAPq1" xmlns="http://www.w3.org/2000/svg" xmlns:xlink="http://www.w3.org/1999/xlink" viewBox="0 0 41 41" shape-rendering="geometricPrecision" text-rendering="geometricPrecision" project-id="19d8940a691543ad9a74b37d7c6442dc" export-id="7281e8c483c44761b8c79610e6d0f583" cached="false">
<style><![CDATA[
#eliek9WSAPq2_to {animation: eliek9WSAPq2_to__to 3000ms linear infinite normal forwards}@keyframes eliek9WSAPq2_to__to { 0% {transform: translate(-20.594999px,33.411651px)} 33.333333% {transform: translate(20.405001px,33.411651px)} 100% {transform: translate(20.405001px,33.411651px)}} #eliek9WSAPq3_to {animation: eliek9WSAPq3_to__to 3000ms linear infinite normal forwards}@keyframes eliek9WSAPq3_to__to { 0% {transform: translate(32.210001px,9.74477px)} 50% {transform: translate(32.210001px,9.74477px)} 66.666667% {transform: translate(30.406709px,11.3054px)} 100% {transform: translate(30.406709px,11.3054px)}} #eliek9WSAPq4 {animation: eliek9WSAPq4_c_o 3000ms linear infinite normal forwards}@keyframes eliek9WSAPq4_c_o { 0% {opacity: 0} 33.333333% {opacity: 0} 50% {opacity: 1} 100% {opacity: 1}} #eliek9WSAPq5 {animation: eliek9WSAPq5_s_do 3000ms linear infinite normal forwards}@keyframes eliek9WSAPq5_s_do { 0% {stroke-dashoffset: 39.98} 16.666667% {stroke-dashoffset: 39.98} 33.333333% {stroke-dashoffset: 0} 100% {stroke-dashoffset: 0}}
]]></style>
<g id="eliek9WSAPq2_to" transform="translate(-20.594999,33.411651)"><path d="M34.2502,40.1v-2.1857c0-.2484,0-.4968-.0014-.7458-.0021-.5598-.0035-1.1382.0077-1.7027M7.42889,40.1004l.0014-1.6568c0-.3044-.0007-.6054-.0014-.9036c0,0-.00351-1.3401.0042-2.0002m4.45611,4.5607v-2.2111c0-.5016,0-1.0032,0-1.5055-.0007-1.2108-.0021-2.4631.0035-3.6939m4.4743,7.4106v-1.8763c0-.1273,0-.2463,0-.3647.0014-.2518,0-.5043,0-.7569-.0021-.5929-.0042-1.1533.0217-1.7179m4.4554,4.7158v-2.1427c0-.2532,0-.5071-.0014-.7604-.0021-.5708-.0035-1.1602.0056-1.7366m4.4561,4.6396v-2.1959c0-.5092,0-1.0184,0-1.5276-.0007-1.2039-.0014-2.4492.0021-3.6732m4.4666,7.3965v-2.3991c-.0007-.6337-.0014-1.2329.0014-1.8369m-9.3564,4.2363c-6.2767,0-12.55404,0-18.83069-.0007-.31534,0-.4576-.0574-.49193-.092-.03504-.0346-.0939-.1771-.0939-.4926-.002106-3.8046-.002106-7.7891,0-12.181c0-.429.08479-.5224.08549-.5238c0,0,.10371-.0878.5571-.0878c3.38254,0,18.80753,0,18.80753,0h18.7613c.4155,0,.5143.0802.5143.0802s.0827.1003.0827.5168v.4394c0,3.9291,0,7.8589,0,11.788c0,.3757-.0841.4629-.0876.4663-.0035.0035-.0918.0865-.4723.0865-6.2766,0-12.554.0007-18.8306.0007h-.0014Z" transform="translate(-20.405001,-33.411651)" fill="none" stroke="#ee3524" stroke-width="1.5" stroke-miterlimit="10" stroke-dasharray="141.38"/></g><g id="eliek9WSAPq3_to" transform="translate(32.210001,9.74477)"><path d="M21.953,21.4144c-.166,0-.2964-.0457-.3868-.1363-.1037-.1038-.1633-.2775-.1717-.494.0456-.2076.0932-.4262.1423-.6524.1324-.6068.2824-1.2952.4331-1.9705.07-.3127.1394-.6261.2095-.9395.281-1.2634.5718-2.5696.8794-3.8454.0568-.2353.1689-.4733.2992-.6359c3.0595-3.81838,6.1856-7.69007,9.2086-11.43376l.0456-.05604c.1296-.16052.3251-.352162.52-.352162.1331,0,.3111.08164.5003.229702c2.1506,1.67916,4.2431,3.31958,6.2178,4.87489.433.3411.4597.57702.1128,1.00875-1.2487,1.55739-2.4989,3.11412-3.749,4.67152-1.8745,2.3343-3.8121,4.7482-5.7154,7.1248-.2081.2602-.4379.4131-.7456.4975-1.1983.3279-2.4155.6642-3.592.9893-1.2831.3543-2.6096.721-3.9152,1.078-.103.0283-.2018.0422-.2929.0422v-.0007Z" transform="translate(-30.798002,-11.156769)" fill="none" stroke="#ee3524" stroke-width="1.5" stroke-miterlimit="10"/></g><path id="eliek9WSAPq4" d="M11.4443,15.0025c.2959-.2898.3007-.7647.0109-1.0606s-.7647-.3007-1.0606-.0109l1.0497,1.0715Zm-.5249-.5357l-.5248-.5358c-.3658.3583-2.68172,2.6789-4.89928,4.9028-1.11033,1.1135-2.19805,2.2049-3.00818,3.0179-.40506.4065-.74074.7434-.97515.9787-.1172.1176-.20909.2098-.27168.2727-.03129.0314-.05526.0554-.07141.0717-.00807.0081-.01419.0142-.01829.0183-.00205.0021-.00359.0036-.00463.0047-.00051.0005-.0009.0009-.00116.0011-.00013.0002-.00023.0003-.00029.0003s-.0001.0001.53125.5294.53138.5293.53145.5292.00016-.0001.00029-.0003c.00026-.0002.00065-.0006.00116-.0011.00103-.0011.00258-.0026.00463-.0047.00409-.0041.01021-.0102.01828-.0183.01614-.0162.0401-.0403.07139-.0717.06258-.0628.15445-.155.27164-.2726.23438-.2353.57002-.5722.97505-.9786.81005-.8129,1.89765-1.9042,3.00783-3.0175c2.22346-2.2299,4.5293-4.5403,4.8868-4.8905l-.5249-.5357Z" transform="translate(0-.28498)" opacity="0" fill="#ee3524" stroke-dashoffset="33.03" stroke-dasharray="33.03"/><path id="eliek9WSAPq5" d="M1.32474,1.9375c-.0007,7.34486-.0007,14.6897,0,22.0353.00561,0,.01052,0,.01612,0c.05536.0007.56582-.0034.62118-.0034l-.4579.0034c.24246,0,.49193-.0035.73369-.0076.24666-.0042.50174-.0083.75611-.0083c3.19684-.0007,6.39438-.0007,9.59126-.0007c0,0,5.7468,0,5.7601,0" fill="none" stroke="#ee3524" stroke-width="1.5" stroke-linecap="round" stroke-miterlimit="10" stroke-dashoffset="39.98" stroke-dasharray="39.98"/></svg>
