<svg id="eelb5kHWyBY1" xmlns="http://www.w3.org/2000/svg" xmlns:xlink="http://www.w3.org/1999/xlink" viewBox="0 0 40 51" shape-rendering="geometricPrecision" text-rendering="geometricPrecision" project-id="1a2b013ad6bf41ae88b10a71b1fb504c" export-id="687ff21937e34485a692061c678655b2" cached="false">
<style><![CDATA[
#eelb5kHWyBY2 {animation: eelb5kHWyBY2_s_do 3000ms linear infinite normal forwards}@keyframes eelb5kHWyBY2_s_do { 0% {stroke-dashoffset: 197.49} 33.333333% {stroke-dashoffset: 197.49} 66.666667% {stroke-dashoffset: 0} 100% {stroke-dashoffset: 0}} #eelb5kHWyBY3_tr {animation: eelb5kHWyBY3_tr__tr 3000ms linear infinite normal forwards}@keyframes eelb5kHWyBY3_tr__tr { 0% {transform: translate(20.594001px,31.522015px) rotate(0deg)} 33.333333% {transform: translate(20.594001px,31.522015px) rotate(360deg)} 100% {transform: translate(20.594001px,31.522015px) rotate(360deg)}}
]]></style>
<path id="eelb5kHWyBY2" d="M9.293,8.05972h-.68863c-.50649,0-1.01212,0-1.51775,0s-1.01126,0-1.51688,0c-.67909,0-1.35904.00087-2.03813.00173-.67128.00087-1.30527.26713-1.78574.75021C1.26452,9.29474,1,9.93132,1,10.6035c0,10.9607,0,23.7003.00087,36.1971c0,.1101.0078.2307.02255.3668.06591.6037.36166,1.1674.83086,1.5872.4692.4206,1.06416.6522,1.67299.6522c3.46568,0,6.93133,0,10.39703,0l.0043.0026c9.1603,0,16.155-.0018,22.6796-.0061.2307,0,.4822-.0399.7285-.1153.5334-.164.9861-.484,1.3079-.9263s.4918-.9757.4918-1.5438c0-3.0953,0-6.1898,0-9.2852-.0009-8.8021-.0018-17.9034.0043-26.8546.0009-.70601-.2706-1.36775-.7641-1.86211-.4883-.48915-1.1327-.75801-1.8152-.75801-.0113,0-.0234,0-.0356,0-.5828.00868-1.2055.01215-1.9609.01215-.5109,0-1.0295-.00174-1.5308-.00347-.5004-.00174-1.0182-.00347-1.5273-.00347h-.6626M9.293,8.05972v-1.61923c0-.72592,0-1.45184,0-2.17689.00087-.97136.62098-1.69815,1.5793-1.85166.079-.01301.1761-.013.2793-.013h.0087c.477,0,.9549,0,1.4319,0l2.1795.013h.5576M9.293,8.05972l-.00694,1.0312c.02168.38161.14831.68863.38855.93668.281.2897.63049.431,1.06939.431c1.0355,0,2.0711,0,3.1066,0c1.4917,0,10.4482,0,10.4482,0c1.6973,0,3.3946,0,5.0918-.0008.7208,0,1.2637-.4198,1.4163-1.09542.013-.0555.0217-.11881.0312-.19253.0052-.04077,0-1.06503.0061-1.10666m0,0v-1.41368c0-.78143,0-1.58887-.0026-2.38244-.0008-.15091-.0104-.26886-.0303-.37206-.177-.90458-.8864-1.49087-1.8075-1.49434-.3399-.00173-.7094-.00173-1.1621-.00173-.2602,0-.5195,0-.7797,0s-.5204,0-.7806,0h-.2376c-.0529,0-.1024-.00261-.1501-.00521-.0208-.00087-.0416-.0026-.0641-.00347l-.4415-.01995-.5845.03036m.0008,2.92276c-.0017-.78923-.0017-1.59147-.0008-2.3677c0-.18499,0-.36997,0-.55506M15.3293,5.28006c0-.66434,0-1.32781,0-1.99216c0-.2918,0-.5839,0-.87596m0,0c0-.20445,0-.40888,0-.61317c0-.52297.2749-.79877.7945-.79877c1.1595,0,2.3182,0,3.4778,0c1.4692,0,2.9392,0,4.4084,0c.3617,0,.7936.13877.7936.79964c0,.20054,0,.40084,0,.60103" fill="none" stroke="#ee3524" stroke-width="1.5" stroke-linecap="round" stroke-miterlimit="10" stroke-dashoffset="197.49" stroke-dasharray="197.49"/><g id="eelb5kHWyBY3_tr" transform="translate(20.594001,31.522015) rotate(0)"><path d="M18.0129,41.2286c-.0234,0-.0468-.0035-.0702-.0096-1.6583-.4527-3.1838-1.3339-4.4128-2.5489-.0546-.0538-.0833-.1292-.0789-.2064.0043-.0772.0416-.1483.1032-.1952.9158-.712,1.1682-2.0077.5871-3.0138-.5828-1.0087-1.8325-1.4371-2.9088-.9974-.0712.0295-.1518.026-.2212-.0078-.0694-.0347-.1197-.0971-.1396-.1717-.2177-.83-.3287-1.6904-.3287-2.5568c0-.8603.1092-1.7163.3252-2.5429.0191-.0745.0703-.137.1396-.1717.0686-.0347.1492-.0373.2212-.0078c1.078.4432,2.3295.0139,2.9123-.9956.5837-1.0104.3279-2.3088-.5949-3.0199-.0607-.0469-.0989-.1188-.1032-.1952-.0052-.0772.0243-.1526.0789-.2064c1.2298-1.2185,2.758-2.1032,4.4188-2.5567.0746-.02.1544-.0079.2186.0355.0642.0425.1067.111.1171.1873.1526,1.157,1.1491,2.0295,2.3182,2.0295s2.1656-.8725,2.3183-2.0295c.0104-.0763.0529-.1448.1171-.1873s.1439-.0555.2185-.0355c1.6618.4544,3.1908,1.3382,4.4197,2.5567.0547.0547.0833.1301.0789.2064s-.0424.1483-.104.1952c-.9228.7103-1.1787,2.0086-.595,3.0199.5828,1.0095,1.8352,1.4371,2.9124.9956.0719-.0295.1526-.0269.2211.0078.0694.0347.1197.0972.1388.1717.2151.8274.3244,1.6826.3244,2.5429c0,.8664-.1102,1.7268-.3287,2.5568-.02.0746-.0703.137-.1397.1717s-.1492.0373-.2211.0087c-1.0755-.4406-2.327-.0113-2.9089.9965-.5811,1.0061-.3287,2.3018.5871,3.0138.0607.0469.098.1188.1032.1952.0044.0772-.0242.1517-.0789.2064-1.2289,1.215-2.7545,2.0962-4.4136,2.5489-.0737.02-.1535.0078-.2177-.0347s-.1067-.1101-.1179-.1864c-.1579-1.1492-1.1535-2.0165-2.3166-2.0165-1.163,0-2.1587.8665-2.3165,2.0165-.0104.0763-.0529.1439-.1179.1864-.0443.0295-.0955.0443-.1475.0443h.0026Zm2.5819-6.0858c-1.9965,0-3.6209-1.6244-3.6209-3.6209s1.6244-3.6209,3.6209-3.6209s3.621,1.6244,3.621,3.6209-1.6245,3.6209-3.621,3.6209Z" transform="translate(-20.594001,-31.522015)" fill="none" stroke="#ee3524" stroke-width="1.5" stroke-miterlimit="10"/></g></svg>
