<svg width="64" height="60" viewBox="0 0 64 60" fill="none" xmlns="http://www.w3.org/2000/svg">
<g clip-path="url(#clip0_614_1025)">
<path d="M0.800781 44.4756L7.05794 40.8873C7.75081 40.4934 8.63556 40.7276 9.04062 41.4091L19.5723 59.1908" stroke="#EE3524" stroke-width="1.5" stroke-linecap="round" stroke-linejoin="round"/>
<path d="M10.2656 43.4855L17.2157 38.9815C20.6054 36.788 24.7839 36.1918 28.6534 37.3417L41.9565 41.3027C43.662 41.8138 44.7386 43.4961 44.4828 45.2636C44.195 47.1909 42.4255 48.5325 40.4961 48.2876L28.8133 46.8395" stroke="#EE3524" stroke-width="1.5" stroke-linecap="round" stroke-linejoin="round"/>
<path d="M43.7701 42.5376L57.4783 34.2005C59.1518 33.1783 61.3264 33.6148 62.4776 35.2013C63.6928 36.873 63.3304 39.2155 61.6568 40.44L42.0112 54.8251C40.4869 55.9431 38.6108 56.4862 36.7241 56.3477L21.918 55.3043" stroke="#EE3524" stroke-width="1.5" stroke-linecap="round" stroke-linejoin="round"/>
<path d="M28.6523 37.331V2.88554C28.6523 1.73558 29.5904 0.798584 30.7416 0.798584H45.2173C46.3685 0.798584 47.3066 1.73558 47.3066 2.88554V40.1739" stroke="#EE3524" stroke-width="1.5" stroke-linecap="round" stroke-linejoin="round"/>
<path d="M47.3086 23.574H52.5957C53.8216 23.574 54.8236 24.5642 54.8236 25.7994V35.8189" stroke="#EE3524" stroke-width="1.5" stroke-linecap="round" stroke-linejoin="round"/>
<path d="M16.8008 39.2476V16.5999C16.8008 15.418 17.5576 14.3639 18.6769 13.9699L28.6649 10.52" stroke="#EE3524" stroke-width="1.5" stroke-linecap="round" stroke-linejoin="round"/>
<path d="M22.7266 36.9052V20.3799" stroke="#EE3524" stroke-width="1.5" stroke-linecap="round" stroke-linejoin="round"/>
<path d="M34.9961 13.0647H40.9761" stroke="#EE3524" stroke-width="1.5" stroke-linecap="round" stroke-linejoin="round"/>
<path d="M34.9961 21.0293H40.9761" stroke="#EE3524" stroke-width="1.5" stroke-linecap="round" stroke-linejoin="round"/>
<path d="M34.9961 28.9939H40.9761" stroke="#EE3524" stroke-width="1.5" stroke-linecap="round" stroke-linejoin="round"/>
</g>
<defs>
<clipPath id="clip0_614_1025">
<rect width="64" height="60" fill="white"/>
</clipPath>
</defs>
</svg>
