<svg id="ecVAX6Pfend1" xmlns="http://www.w3.org/2000/svg" xmlns:xlink="http://www.w3.org/1999/xlink" viewBox="0 0 52 50" shape-rendering="geometricPrecision" text-rendering="geometricPrecision" project-id="dfb04d066bf24cf8a7c7634bca287017" export-id="0ea97e2c41cd4097b8e8c07f93bd416c" cached="false">
<style><![CDATA[
#ecVAX6Pfend3 {animation: ecVAX6Pfend3_s_do 3000ms linear infinite normal forwards}@keyframes ecVAX6Pfend3_s_do { 0% {stroke-dashoffset: 40.79} 16.666667% {stroke-dashoffset: 0} 100% {stroke-dashoffset: 0}} #ecVAX6Pfend4 {animation: ecVAX6Pfend4_s_do 3000ms linear infinite normal forwards}@keyframes ecVAX6Pfend4_s_do { 0% {stroke-dashoffset: 49.3} 16.666667% {stroke-dashoffset: 49.3} 33.333333% {stroke-dashoffset: 0} 100% {stroke-dashoffset: 0}} #ecVAX6Pfend5 {animation: ecVAX6Pfend5_s_do 3000ms linear infinite normal forwards}@keyframes ecVAX6Pfend5_s_do { 0% {stroke-dashoffset: 150.8} 33.333333% {stroke-dashoffset: 150.8} 83.333333% {stroke-dashoffset: 0} 100% {stroke-dashoffset: 0}}
]]></style>
<path d="M1.46094,29.5552l1.49673,4.4804c.09649.3015.31836.5583.60785.7032.17679.0883.36414.1332.55713.1332.1289,0,.2585-.0207.38528-.0607l2.20037-.6978.15214.2733c.87902,1.5729,1.95737,3.0298,3.20546,4.33l.2177.227-1.36014,1.8386c-.1958.2581-.2768.5742-.2275.8902.04931.3175.22328.5998.49234.7958l3.9162,2.7854c.2155.1539.4648.2346.7198.2346.0662,0,.1338-.0055.2085-.0179.319-.0476.6029-.2195.7973-.4838l1.3678-1.8268.2874.1353c1.6313.7681,3.3752,1.325,5.1847,1.6542l.3141.0573v2.2671c0,.6653.5522,1.2057,1.2312,1.2057h4.8452c.679,0,1.2305-.5411,1.2305-1.2057v-2.2671l.3141-.0573c1.7869-.325,3.5344-.8847,5.1939-1.6625l.2887-.1353l1.3538,1.833c.1888.263.4656.4307.7987.4866.0683.011.1381.0172.2064.0172.2571,0,.505-.0814.7156-.2353l3.9162-2.7847c.2676-.1905.4423-.4735.4916-.7958.0493-.3202-.0282-.63-.2226-.8958L41,38.9342l.2176-.2257c1.2643-1.3092,2.3392-2.7647,3.195-4.3265l.1521-.2781l2.199.706c.1267.0393.257.0587.3866.0587.1923,0,.3846-.0442.5572-.1284.3007-.1539.512-.3989.6113-.7088l1.4954-4.4845" fill="none" stroke="#ee3524" stroke-width="1.5" stroke-linecap="round" stroke-miterlimit="10"/><path id="ecVAX6Pfend3" d="M41.3358,29.5508l-.0409.1152c-2.3018,6.5157-8.5902,10.8939-15.6484,10.8939h-.0162l-.0014-.0007c-7.0575,0-13.3466-4.3775-15.64843-10.8939" transform="translate(.118007 0)" fill="none" stroke="#ee3524" stroke-width="1.5" stroke-linecap="round" stroke-miterlimit="10" stroke-dashoffset="40.79" stroke-dasharray="40.79"/><path id="ecVAX6Pfend4" d="M1,26.2832h49.2957" fill="none" stroke="#ee3524" stroke-width="1.5" stroke-linecap="round" stroke-miterlimit="10" stroke-dashoffset="49.3" stroke-dasharray="49.3"/><path id="ecVAX6Pfend5" d="M12.3406,23.9444v-11.0767-7.33969l4.4219-3.61357l4.4219,3.61357v18.41709m8.9212-.0007v-22.9444h8.8437v22.9451m8.1141,0v-10.7006c0-.225-.1937-.4148-.4233-.4148h-7.6908M30.1056,8.87382h-8.9212M12.3406,12.0388h-7.69073c-.22961,0-.42331.1898-.42331.4148v11.4915" fill="none" stroke="#ee3524" stroke-width="1.5" stroke-miterlimit="10" stroke-dashoffset="150.8" stroke-dasharray="150.8"/><path d="M18.7987,8.12305h-4.076" fill="none" stroke="#ee3524" stroke-miterlimit="10"/><path d="M37.119,8.10742h-4.076" fill="none" stroke="#ee3524" stroke-miterlimit="10"/><path d="M37.119,10.8691h-4.076" fill="none" stroke="#ee3524" stroke-miterlimit="10"/><path d="M18.7987,12.0781h-4.076" fill="none" stroke="#ee3524" stroke-miterlimit="10"/></svg>
