<svg width="38" height="48" viewBox="0 0 38 48" fill="none" xmlns="http://www.w3.org/2000/svg">
<path d="M8.88025 7.70835H8.2259C7.74461 7.70835 7.26415 7.70835 6.78368 7.70835C6.30322 7.70835 5.82276 7.70835 5.3423 7.70835C4.69701 7.70835 4.0509 7.70917 3.40561 7.71C2.76774 7.71082 2.16531 7.96383 1.70874 8.42286C1.25136 8.8819 1 9.4868 1 10.1255C1 20.5407 1 32.6463 1.00082 44.521C1.00082 44.6257 1.00824 44.7403 1.02225 44.8696C1.08488 45.4432 1.36591 45.9789 1.81176 46.3778C2.25761 46.7775 2.82296 46.9975 3.40149 46.9975C6.69468 46.9975 9.98787 46.9975 13.2811 46.9975L13.2852 47C21.9896 47 28.6361 46.9984 34.836 46.9942C35.0552 46.9942 35.2942 46.9563 35.5282 46.8846C36.0351 46.7289 36.4652 46.4248 36.771 46.0045C37.0767 45.5842 37.2383 45.0773 37.2383 44.5375C37.2383 41.5962 37.2383 38.6558 37.2383 35.7145C37.2374 27.3505 37.2366 18.7021 37.2424 10.1964C37.2432 9.52554 36.9853 8.89673 36.5163 8.42699C36.0524 7.96218 35.44 7.7067 34.7915 7.7067C34.7807 7.7067 34.7692 7.7067 34.7577 7.7067C34.2039 7.71494 33.6121 7.71824 32.8943 7.71824C32.4089 7.71824 31.9161 7.71659 31.4398 7.71494C30.9642 7.7133 30.4722 7.71165 29.9885 7.71165H29.3588M8.88025 7.70835V6.16972C8.88025 5.47993 8.88025 4.79014 8.88025 4.10117C8.88107 3.17815 9.47032 2.48754 10.381 2.34167C10.456 2.32931 10.5483 2.32931 10.6463 2.32931H10.6546C11.1078 2.32931 11.5619 2.32931 12.0152 2.32931L14.0862 2.34167H14.6161M8.88025 7.70835L8.87366 8.68823C8.89426 9.05084 9.01458 9.34258 9.24286 9.57828C9.50988 9.85354 9.842 9.98787 10.259 9.98787C11.243 9.98787 12.227 9.98787 13.211 9.98787C14.6285 9.98787 23.1392 9.98787 23.1392 9.98787C24.752 9.98787 26.3648 9.98787 27.9776 9.98705C28.6625 9.98705 29.1784 9.58817 29.3234 8.94618C29.3358 8.89344 29.344 8.83328 29.3531 8.76323C29.358 8.72449 29.3531 7.75121 29.3588 7.71165M29.3588 7.71165V6.36833C29.3588 5.6258 29.3588 4.85854 29.3564 4.10447C29.3555 3.96107 29.3465 3.84899 29.3275 3.75092C29.1594 2.89136 28.4853 2.33425 27.6101 2.33096C27.287 2.32931 26.9359 2.32931 26.5057 2.32931C26.2585 2.32931 26.0121 2.32931 25.7649 2.32931C25.5176 2.32931 25.2704 2.32931 25.0231 2.32931H24.7973C24.7471 2.32931 24.7001 2.32684 24.6548 2.32436C24.635 2.32354 24.6152 2.32189 24.5938 2.32107L24.1743 2.30211L23.6188 2.33096M23.6197 5.10825C23.618 4.3583 23.618 3.59598 23.6188 2.8584C23.6188 2.68261 23.6188 2.50683 23.6188 2.33096M14.6161 5.06704C14.6161 4.43576 14.6161 3.80531 14.6161 3.17403C14.6161 2.89675 14.6161 2.61919 14.6161 2.34167M14.6161 2.34167C14.6161 2.14739 14.6161 1.95313 14.6161 1.75902C14.6161 1.26207 14.8774 1 15.371 1C16.4729 1 17.5739 1 18.6758 1C20.0718 1 21.4687 1 22.8648 1C23.2084 1 23.6188 1.13186 23.6188 1.75984C23.6188 1.9504 23.6188 2.14073 23.6188 2.33096" stroke="#EE3524" stroke-width="1.5" stroke-miterlimit="10" stroke-linecap="round"/>
<path d="M17.1607 39.2282C17.1384 39.2282 17.1162 39.2249 17.0939 39.2191C15.5182 38.7889 14.0686 37.9516 12.9008 36.797C12.8489 36.7459 12.8217 36.6742 12.8258 36.6009C12.8299 36.5275 12.8653 36.46 12.9239 36.4155C13.7941 35.7389 14.0339 34.5076 13.4818 33.5516C12.928 32.5932 11.7404 32.1861 10.7177 32.6039C10.6501 32.6319 10.5735 32.6286 10.5075 32.5965C10.4416 32.5635 10.3938 32.5042 10.3748 32.4333C10.168 31.6446 10.0625 30.8271 10.0625 30.0038C10.0625 29.1863 10.1663 28.3729 10.3715 27.5875C10.3897 27.5166 10.4383 27.4573 10.5042 27.4243C10.5693 27.3913 10.646 27.3889 10.7144 27.4169C11.7388 27.838 12.928 27.4301 13.4818 26.4708C14.0364 25.5107 13.7933 24.277 12.9164 23.6012C12.8587 23.5567 12.8225 23.4883 12.8184 23.4158C12.8134 23.3424 12.8414 23.2707 12.8934 23.2196C14.062 22.0617 15.5141 21.2211 17.0923 20.7901C17.1631 20.7712 17.239 20.7827 17.2999 20.8239C17.3609 20.8643 17.4013 20.9294 17.4112 21.0019C17.5562 22.1013 18.5032 22.9304 19.6141 22.9304C20.725 22.9304 21.6719 22.1013 21.8169 21.0019C21.8268 20.9294 21.8672 20.8643 21.9282 20.8239C21.9892 20.7835 22.065 20.7712 22.1359 20.7901C23.7149 21.222 25.1678 22.0617 26.3356 23.2196C26.3875 23.2715 26.4147 23.3432 26.4106 23.4158C26.4065 23.4883 26.3702 23.5567 26.3117 23.6012C25.4348 24.2761 25.1917 25.5099 25.7464 26.4708C26.3002 27.4301 27.4902 27.8364 28.5138 27.4169C28.5822 27.3889 28.6588 27.3913 28.7239 27.4243C28.7898 27.4573 28.8376 27.5166 28.8558 27.5875C29.0602 28.3737 29.164 29.1863 29.164 30.0038C29.164 30.8271 29.0593 31.6446 28.8516 32.4333C28.8327 32.5042 28.7849 32.5635 28.719 32.5965C28.653 32.6294 28.5772 32.6319 28.5088 32.6047C27.4869 32.1861 26.2977 32.594 25.7447 33.5516C25.1925 34.5076 25.4324 35.7389 26.3026 36.4155C26.3603 36.46 26.3958 36.5284 26.4007 36.6009C26.4048 36.6742 26.3776 36.7451 26.3257 36.797C25.1579 37.9516 23.7083 38.7889 22.1318 39.2191C22.0617 39.2381 21.9859 39.2265 21.9249 39.1862C21.8639 39.1458 21.8235 39.0815 21.8128 39.009C21.6628 37.917 20.7167 37.0929 19.6116 37.0929C18.5065 37.0929 17.5604 37.9162 17.4104 39.009C17.4005 39.0815 17.3601 39.1458 17.2983 39.1862C17.2563 39.2142 17.2076 39.2282 17.1582 39.2282H17.1607ZM19.6141 33.4453C17.7169 33.4453 16.1734 31.9017 16.1734 30.0046C16.1734 28.1075 17.7169 26.5639 19.6141 26.5639C21.5112 26.5639 23.0548 28.1075 23.0548 30.0046C23.0548 31.9017 21.5112 33.4453 19.6141 33.4453Z" stroke="#EE3524" stroke-width="1.5" stroke-miterlimit="10"/>
</svg>
