<svg id="ea3hQjnwybV1" xmlns="http://www.w3.org/2000/svg" xmlns:xlink="http://www.w3.org/1999/xlink" viewBox="0 0 70 70" shape-rendering="geometricPrecision" text-rendering="geometricPrecision" project-id="73ff2c08d58445d4a1fc51464ef85f46" export-id="c7bd9addd75f41b6b315960f359a6c58" cached="false">
<style><![CDATA[
#ea3hQjnwybV2_to {animation: ea3hQjnwybV2_to__to 3750ms linear infinite normal forwards}@keyframes ea3hQjnwybV2_to__to { 0% {transform: translate(35px,-20px)} 50% {transform: translate(35px,35px)} 100% {transform: translate(35px,35px)}} #ea3hQjnwybV2_ts {animation: ea3hQjnwybV2_ts__ts 3750ms linear infinite normal forwards}@keyframes ea3hQjnwybV2_ts__ts { 0% {transform: scale(0.6,0.6)} 50% {transform: scale(1,1)} 100% {transform: scale(1,1)}}
]]></style>
<g id="ea3hQjnwybV2_to" transform="translate(35,-20)"><g id="ea3hQjnwybV2_ts" transform="scale(0.6,0.6)"><path d="M35.6875,52.5c-2.6667.1667-5.3125-.5625-7.9375-2.1875s-4.2917-4.3333-5-8.125M35,60c-5.7083,0-10.4687-1.9583-14.2812-5.875s-5.7188-8.7917-5.7188-14.625c0-4.1667,1.6563-8.6979,4.9688-13.5937C23.2813,21.0104,28.2917,15.7083,35,10c6.7083,5.7083,11.7187,11.0104,15.0312,15.9063C53.3437,30.8021,55,35.3333,55,39.5c0,5.8333-1.9062,10.7083-5.7187,14.625s-8.573,5.875-14.2813,5.875Z" transform="translate(-35,-35)" fill="none" stroke="#ee3524" stroke-width="1.5" stroke-linecap="round"/></g></g></svg>
